<?xml version="1.0" encoding="UTF-8" standalone="no"?>
<svg
   xmlns:dc="http://purl.org/dc/elements/1.1/"
   xmlns:cc="http://creativecommons.org/ns#"
   xmlns:rdf="http://www.w3.org/1999/02/22-rdf-syntax-ns#"
   xmlns:svg="http://www.w3.org/2000/svg"
   xmlns="http://www.w3.org/2000/svg"
   xmlns:sodipodi="http://sodipodi.sourceforge.net/DTD/sodipodi-0.dtd"
   xmlns:inkscape="http://www.inkscape.org/namespaces/inkscape"
   width="207.26576mm"
   height="239.83647mm"
   viewBox="0 0 207.26576 239.83647"
   version="1.1"
   id="svg1467"
   sodipodi:docname="ffpros.svg"
   inkscape:export-filename="C:\Users\Tan\Documents\GitHub\_dynastyprocess\graphics\packages\ffpros.png"
   inkscape:export-xdpi="53.799992"
   inkscape:export-ydpi="53.799992"
   inkscape:version="1.0.1 (3bc2e813f5, 2020-09-07)">
  <defs
     id="defs1461" />
  <sodipodi:namedview
     id="base"
     pagecolor="#ffffff"
     bordercolor="#666666"
     borderopacity="1.0"
     inkscape:pageopacity="0.0"
     inkscape:pageshadow="2"
     inkscape:zoom="0.32220952"
     inkscape:cx="1045.2698"
     inkscape:cy="483.44962"
     inkscape:document-units="mm"
     inkscape:current-layer="layer1"
     inkscape:document-rotation="0"
     showgrid="false"
     inkscape:window-width="1920"
     inkscape:window-height="1017"
     inkscape:window-x="1912"
     inkscape:window-y="-8"
     inkscape:window-maximized="1" />
  <metadata
     id="metadata1464">
    <rdf:RDF>
      <cc:Work
         rdf:about="">
        <dc:format>image/svg+xml</dc:format>
        <dc:type
           rdf:resource="http://purl.org/dc/dcmitype/StillImage" />
      </cc:Work>
    </rdf:RDF>
  </metadata>
  <g
     inkscape:label="Layer 1"
     inkscape:groupmode="layer"
     id="layer1"
     transform="translate(453.76287,-50.852117)">
    <path
       transform="matrix(-0.95583528,0,0,0.95788252,-187.13495,-221.27742)"
       inkscape:export-ydpi="53.799995"
       inkscape:export-xdpi="53.799995"
       inkscape:randomized="0"
       inkscape:rounded="0"
       inkscape:flatsided="true"
       sodipodi:arg2="3.1415491"
       sodipodi:arg1="2.6179504"
       sodipodi:r2="85.672287"
       sodipodi:r1="120.00529"
       sodipodi:cy="409.28586"
       sodipodi:cx="170.52629"
       sodipodi:sides="6"
       id="path821-9-6-2"
       style="fill:#333333;fill-opacity:1;stroke:#d31027;stroke-width:8.98185;stroke-linecap:round;stroke-linejoin:miter;stroke-miterlimit:4;stroke-dasharray:none;stroke-opacity:1;paint-order:normal"
       sodipodi:type="star"
       d="m 66.601273,469.29302 -0.0052,-120.00529 103.925015,-60.00716 103.93024,59.99813 0.005,120.00528 -103.92502,60.00717 z" />
    <path
       transform="matrix(-0.95583528,0,0,0.95788252,271.27074,-222.13291)"
       inkscape:export-ydpi="53.799995"
       inkscape:export-xdpi="53.799995"
       inkscape:randomized="0"
       inkscape:rounded="0"
       inkscape:flatsided="true"
       sodipodi:arg2="3.1415491"
       sodipodi:arg1="2.6179504"
       sodipodi:r2="85.672287"
       sodipodi:r1="120.00529"
       sodipodi:cy="409.28586"
       sodipodi:cx="170.52629"
       sodipodi:sides="6"
       id="path821-9"
       style="fill:#333333;fill-opacity:1;stroke:#d31027;stroke-width:8.98185;stroke-linecap:round;stroke-linejoin:miter;stroke-miterlimit:4;stroke-dasharray:none;stroke-opacity:1;paint-order:normal"
       sodipodi:type="star"
       d="m 66.601273,469.29302 -0.0052,-120.00529 103.925015,-60.00716 103.93024,59.99813 0.005,120.00528 -103.92502,60.00717 z" />
    <ellipse
       fill="#616e7d"
       cx="76.818962"
       cy="191.45581"
       id="circle6-8"
       style="fill:#d31026;fill-opacity:1;stroke-width:4.03964"
       rx="20.394506"
       ry="20.003834" />
    <path
       fill="#616e7d"
       d="m 64.990141,213.46003 c -10.605147,0 -19.170836,8.40162 -19.170836,18.80361 v 9.20176 H 108.2265 v -9.20176 c 0,-10.40199 -8.565699,-18.80361 -19.170837,-18.80361 z m 19.578724,25.20483 h -2.855227 -9.381483 l 2.447349,-15.20291 -2.447349,15.20291 h -2.855226 l -4.486788,-23.20444 c 0.407888,0 0.815777,0 1.223665,0 h 21.618182 c 0.407897,0 0.815785,0 1.223675,0 z"
       id="path8-8"
       style="fill:#d31026;fill-opacity:1;stroke-width:4.03964" />
    <polygon
       fill="#aad3c7"
       points="9.8,30.9 9.7,30.9 9.2,34.8 11.5,34.8 10.9,30.9 11.5,29.9 9.2,29.9 "
       id="polygon12-5"
       transform="matrix(4.0789013,0,0,4.0007666,34.806278,99.438177)"
       style="fill:#d31027;fill-opacity:1" />
    <path
       fill="#616e7d"
       d="m 141.63641,172.6803 c -9.82645,0.49132 -18.17892,8.84379 -18.67025,18.67024 -0.49132,11.3004 8.35248,21.12685 19.65289,21.12685 0.49132,0 0.49132,0 0.98265,0 h 23.58346 c 0.49132,0 0.49132,-0.49132 0,-0.49132 -2.94793,-0.98265 -4.91322,-4.4219 -4.91322,-8.35248 v -10.80909 0 -0.49132 c 0.49132,-11.30041 -9.33513,-20.63553 -20.63553,-19.65288 z"
       id="path20-4"
       style="fill:#d31026;fill-opacity:1;stroke-width:4.91322" />
    <path
       fill="#616e7d"
       d="m 131.31864,213.95135 c -10.31776,0 -18.67024,8.35249 -18.67024,18.67025 v 8.8438 h 60.43262 v -8.8438 c 0,-10.31776 -8.35247,-18.67025 -18.67024,-18.67025 z m 16.70495,11.79174 3.93058,3.43925 -8.8438,9.82644 -8.8438,-9.33512 3.93059,-3.43925 c 0,0 -5.89588,-4.91323 -5.89588,-5.40455 -0.49132,-0.98264 3.43926,-3.43925 3.43926,-3.43925 l 7.36983,22.10949 7.36983,-22.10949 c 0,0 3.93058,2.45661 3.43926,3.43925 -0.49132,0 -5.89587,4.91323 -5.89587,4.91323 z"
       id="path22-1"
       style="fill:#d31027;fill-opacity:1;stroke-width:4.91322" />
    <path
       fill="#aad3c7"
       d="m 50.86,154.32033 v -33.00171 c 0,-3.30016 2.90349,-5.50027 6.968342,-5.50027 h 24.38921 v 17.60091 c 0,5.50027 5.226254,9.35047 11.613909,9.35047 h 32.518949 v 11.5506 c 0,3.30017 -2.90347,5.50028 -6.96836,5.50028 H 86.282424 l -9.871825,9.35047 1.161392,-9.35047 H 57.828342 C 53.76349,160.37063 50.86,157.6205 50.86,154.32033 Z"
       id="path4-0"
       style="fill:#d31027;fill-opacity:1;stroke-width:5.65155" />
    <path
       fill="#616e7d"
       d="M 124.06872,150.95909 H 88.50069 c -4.088289,0 -7.358912,-2.86178 -7.358912,-6.54124 v -35.97686 c 0,-3.67945 3.270623,-6.54123 7.358912,-6.54123 h 76.45081 c 4.08827,0 7.35889,2.86178 7.35889,6.54123 v 35.97686 c 0,3.67946 -3.27062,6.54124 -7.35889,6.54124 h -30.66209 l 0.81765,11.44719 z"
       id="path2-9"
       style="fill:#e5e5e5;fill-opacity:1;stroke-width:4.08828"
       sodipodi:nodetypes="cssssssssccc" />
    <g
       inkscape:export-ydpi="53.799995"
       inkscape:export-xdpi="53.799995"
       style="fill:#d31027;fill-opacity:1;stroke:#000000;stroke-width:3.50768"
       id="g14-39-6-0"
       transform="matrix(0.03810379,0.0147361,-0.01468542,0.03855406,115.02286,100.01401)">
      <g
         style="fill:#d31027;fill-opacity:1;stroke:#000000;stroke-width:3.50768"
         id="g12-2-9-0"
         transform="matrix(0.0997661,-0.00658435,-0.00663306,-0.09979668,1.9631403,544.88388)">
        <path
           style="fill:#d31027;fill-opacity:1;stroke:#000000;stroke-width:3.50768"
           id="path4-6-5"
           d="m 7412.9,5004.9 c -120.7,-7.7 -291.2,-19.2 -377.5,-26.8 l -157.1,-15.3 306.6,-183.9 c 1086.4,-659.1 1904.5,-1454.2 2513.8,-2452.4 130.3,-212.7 143.7,-229.9 153.3,-182 5.7,30.6 23,264.4 34.5,523.1 32.6,620.8 3.8,1444.6 -55.6,1609.4 -65.1,187.8 -120.7,274 -260.6,413.8 -233.7,233.7 -387,291.2 -854.5,314.2 -377.5,21 -971.5,19.1 -1302.9,-0.1 z"
           inkscape:connector-curvature="0" />
        <path
           style="fill:#d31027;fill-opacity:1;stroke:#000000;stroke-width:3.50768"
           id="path6-4-6"
           d="M 5592.7,4707.9 C 4397.1,4357.3 3387.4,3736.5 2383.4,2732.5 1385.2,1732.4 751,703.5 406.1,-484.4 c -36.4,-126.4 -67.1,-256.7 -69,-289.3 -1.9,-74.7 333.4,-756.8 513.5,-1042.3 145.6,-229.9 335.3,-498.2 352.5,-498.2 5.8,1.9 67.1,101.5 136,224.2 124.5,222.2 538.4,864.1 689.8,1069.1 l 80.5,109.2 -212.6,214.7 c -182,183.9 -212.7,226.1 -212.7,277.8 0,82.4 72.8,155.2 155.2,155.2 51.7,0 92,-30.7 258.7,-195.4 l 199.2,-193.6 42.2,55.6 c 24.9,30.6 105.4,132.2 182,228 l 136,172.4 -222.2,224.2 c -203.1,205 -222.3,231.8 -222.3,295.1 0,53.6 13.4,80.5 55.6,116.9 90.1,78.5 143.7,53.6 383.2,-185.9 l 210.8,-208.8 176.3,205 176.3,205 -220.3,222.3 c -193.5,197.3 -218.4,229.9 -218.4,289.3 0,86.2 65.1,149.4 153.3,149.4 55.6,0 90.1,-26.8 277.8,-210.8 116.9,-115 218.4,-210.8 224.2,-210.8 5.7,0 93.9,90.1 197.3,201.2 l 187.8,203.1 -214.8,216.5 c -187.8,191.6 -212.7,224.2 -212.7,283.6 0,86.2 65.1,149.4 153.3,149.4 55.6,0 92,-26.8 279.7,-212.7 l 216.5,-214.6 149.4,136 c 82.4,72.8 174.4,160.9 205,193.5 l 57.5,59.4 -205,208.8 c -185.9,185.9 -205,214.6 -205,277.8 0,92 53.6,145.6 147.5,145.6 63.2,0 90,-19.2 285.5,-212.7 l 214.6,-212.7 193.5,168.6 193.5,168.6 -201.2,205 c -189.7,191.6 -201.2,206.9 -201.2,281.6 0,61.3 11.5,86.2 49.8,116.9 95.8,74.7 130.3,57.5 371.7,-182 l 226.1,-222.3 197.3,159 c 109.2,86.2 206.9,164.8 218.4,174.4 11.5,9.6 -55.6,90 -168.6,203.1 -220.3,222.3 -243.3,275.9 -151.4,367.9 99.6,99.6 136,84.3 377.5,-155.2 l 214.6,-210.8 293.1,201.2 c 306.6,212.7 745.3,492.4 963.7,613.1 70.9,40.2 128.4,80.5 128.4,90.1 0,24.9 -454.1,320 -737.6,479 -281.7,157.1 -779.8,400.4 -818.1,400.4 -13.3,-1.6 -124.4,-30.4 -245.1,-66.8 z"
           inkscape:connector-curvature="0" />
        <path
           style="fill:#d31027;fill-opacity:1;stroke:#000000;stroke-width:3.50768"
           id="path8-6-2"
           d="M 7401.4,3527.7 C 7000.9,3292 6361,2876.3 6255.6,2780.5 c -11.5,-9.6 51.7,-90 157.1,-197.3 147.5,-149.5 176.3,-187.8 176.3,-239.5 0,-82.4 -72.8,-155.2 -155.2,-155.2 -51.7,0 -92,30.7 -258.7,193.5 l -197.4,193.5 -201.2,-155.2 c -111.1,-86.2 -206.9,-166.7 -214.6,-176.3 -7.7,-11.5 61.3,-95.8 153.3,-187.8 147.5,-147.5 164.8,-172.4 164.8,-235.7 0,-53.6 -11.5,-80.5 -49.8,-109.2 -97.7,-76.6 -145.6,-57.5 -348.7,139.9 l -187.8,182 -185.8,-162.9 c -101.5,-90 -185.8,-168.6 -185.8,-176.3 0,-5.8 72.8,-86.2 162.9,-178.2 143.7,-145.6 162.9,-174.4 162.9,-235.7 0,-74.7 -51.7,-143.7 -109.2,-147.5 -88.1,-5.7 -122.6,15.3 -287.4,178.2 L 4677,1485.1 4473.9,1297.3 c -111.1,-105.4 -203.1,-193.5 -203.1,-199.3 0,-3.8 72.8,-84.3 162.9,-176.3 143.7,-145.6 162.9,-174.4 162.9,-235.7 0,-74.7 -51.7,-143.7 -111.1,-147.5 -84.3,-5.7 -120.7,15.3 -275.9,170.5 l -166.7,164.8 -42.2,-38.3 c -23,-19.2 -109.2,-113 -195.4,-205 L 3652,461.9 3818.7,293.3 c 134.1,-138 164.8,-180.1 164.8,-228 0,-88.1 -19.2,-120.7 -84.3,-147.5 -84.3,-36.4 -132.2,-9.6 -308.5,164.8 L 3435.5,233.9 3259,31.1 l -178.2,-205 172.4,-176.3 c 195.4,-199.2 216.5,-256.7 126.5,-344.9 -88.1,-90.1 -147.5,-69 -335.3,115 l -166.7,162.9 -160.9,-205 c -90,-115 -170.5,-218.4 -178.2,-233.7 -11.5,-17.2 38.3,-80.5 168.6,-210.8 220.3,-220.3 241.4,-274 147.5,-367.9 -92,-92 -147.5,-70.9 -348.7,128.4 -92,92 -174.4,160.9 -185.8,153.3 -49.8,-30.7 -544.1,-793.2 -768.3,-1186 l -139.9,-243.4 95.8,-111.1 c 51.7,-59.4 197.4,-208.8 321.9,-329.6 548,-530.7 1207.1,-982.9 1994.5,-1366.1 l 314.2,-151.4 128.4,32.6 c 208.8,51.7 580.5,176.3 825.8,277.8 992.5,408.1 1860.4,1032.7 2764.8,1992.6 867.9,917.8 1440.8,1912.1 1749.3,3023.4 l 65.1,235.7 -72.8,168.6 c -394.7,892.8 -986.7,1701.4 -1688,2304.9 -120.7,103.5 -224.2,187.8 -229.9,187.8 -7.7,0 -132.2,-70.9 -279.7,-155.2 z"
           inkscape:connector-curvature="0" />
        <path
           style="fill:#d31027;fill-opacity:1;stroke:#000000;stroke-width:3.50768"
           id="path10-9-8"
           d="m 143.7,-1898.3 c -34.5,-130.3 -55.6,-1013.6 -36.4,-1509.8 19.2,-482.8 24.9,-534.6 67.1,-653.3 130.3,-350.6 417.7,-601.6 770.2,-674.4 285.5,-61.3 1645.8,-57.5 2075,3.8 l 92,13.4 -162.9,93.9 c -249.1,141.8 -731.9,469.4 -965.6,651.4 -689.9,540.3 -1257,1176.4 -1703.4,1912.1 -103.5,170.5 -126.5,197.3 -136,162.9 z"
           inkscape:connector-curvature="0" />
      </g>
    </g>
    <path
       transform="matrix(-0.95583528,0,0,0.95788252,38.154497,-220.11613)"
       inkscape:export-ydpi="53.799995"
       inkscape:export-xdpi="53.799995"
       inkscape:randomized="0"
       inkscape:rounded="0"
       inkscape:flatsided="true"
       sodipodi:arg2="3.1415491"
       sodipodi:arg1="2.6179504"
       sodipodi:r2="85.672287"
       sodipodi:r1="120.00529"
       sodipodi:cy="409.28586"
       sodipodi:cx="170.52629"
       sodipodi:sides="6"
       id="path821-9-6"
       style="fill:#333333;fill-opacity:1;stroke:#d31027;stroke-width:8.98185;stroke-linecap:round;stroke-linejoin:miter;stroke-miterlimit:4;stroke-dasharray:none;stroke-opacity:1;paint-order:normal"
       sodipodi:type="star"
       d="m 66.601273,469.29302 -0.0052,-120.00529 103.925015,-60.00716 103.93024,59.99813 0.005,120.00528 -103.92502,60.00717 z" />
    <ellipse
       fill="#616e7d"
       cx="-156.29729"
       cy="193.4726"
       id="circle6-8-2"
       style="fill:#d31026;fill-opacity:1;stroke-width:4.03963"
       rx="20.394506"
       ry="20.003834" />
    <path
       fill="#616e7d"
       d="m -168.12611,215.47682 c -10.60514,0 -19.17083,8.40162 -19.17083,18.80361 v 9.20176 h 62.40719 v -9.20176 c 0,-10.40199 -8.5657,-18.80361 -19.17083,-18.80361 z m 19.57873,25.20483 h -2.85523 -9.38148 l 2.44735,-15.20291 -2.44735,15.20291 h -2.85523 l -4.48679,-23.20444 c 0.40789,0 0.81578,0 1.22367,0 h 21.61818 c 0.4079,0 0.81579,0 1.22368,0 z"
       id="path8-8-2"
       style="fill:#d31026;fill-opacity:1;stroke-width:4.03963" />
    <polygon
       fill="#aad3c7"
       points="11.5,29.9 9.2,29.9 9.8,30.9 9.7,30.9 9.2,34.8 11.5,34.8 10.9,30.9 "
       id="polygon12-5-0"
       transform="matrix(4.0789013,0,0,4.0007667,-198.30997,101.45495)"
       style="fill:#d31027;fill-opacity:1" />
    <path
       fill="#616e7d"
       d="m -91.479837,174.69707 c -9.826453,0.49133 -18.178923,8.84379 -18.670253,18.67025 -0.49132,11.3004 8.35248,21.12685 19.652893,21.12685 0.49132,0 0.49132,0 0.98265,0 h 23.58346 c 0.49132,0 0.49132,-0.49132 0,-0.49132 -2.94793,-0.98265 -4.91322,-4.4219 -4.91322,-8.35247 v -10.80911 0 -0.49132 c 0.49132,-11.30041 -9.33513,-20.63552 -20.63553,-19.65288 z"
       id="path20-4-0"
       style="fill:#d31026;fill-opacity:1;stroke-width:4.91323" />
    <path
       fill="#616e7d"
       d="m -101.79761,215.96813 c -10.31776,0 -18.67024,8.3525 -18.67024,18.67026 v 8.8438 h 60.432623 v -8.8438 c 0,-10.31776 -8.35247,-18.67026 -18.67024,-18.67026 z m 16.704953,11.79175 3.93058,3.43925 -8.8438,9.82643 -8.8438,-9.33511 3.93059,-3.43925 c 0,0 -5.895883,-4.91323 -5.895883,-5.40456 -0.49132,-0.98263 3.439263,-3.43925 3.439263,-3.43925 l 7.36983,22.1095 7.36983,-22.1095 c 0,0 3.93058,2.45662 3.43926,3.43925 -0.49132,0 -5.89587,4.91324 -5.89587,4.91324 z"
       id="path22-1-9"
       style="fill:#d31027;fill-opacity:1;stroke-width:4.91323" />
    <path
       fill="#aad3c7"
       d="m -182.25625,156.33711 v -33.00172 c 0,-3.30016 2.90349,-5.50027 6.96834,-5.50027 h 24.38921 v 17.60092 c 0,5.50026 5.22626,9.35047 11.61391,9.35047 h 32.51895 v 11.5506 c 0,3.30016 -2.90347,5.50028 -6.96836,5.50028 h -33.09962 l -9.87183,9.35047 1.16139,-9.35047 h -19.74365 c -4.06485,0.55001 -6.96834,-2.20012 -6.96834,-5.50028 z"
       id="path4-0-4"
       style="fill:#9827be;fill-opacity:1;stroke-width:5.65155" />
    <path
       fill="#616e7d"
       d="m -109.04753,152.97586 h -35.56803 c -4.08829,0 -7.35891,-2.86178 -7.35891,-6.54124 v -35.97685 c 0,-3.67946 3.27062,-6.54124 7.35891,-6.54124 h 76.450813 c 4.08827,0 7.35889,2.86178 7.35889,6.54124 v 35.97685 c 0,3.67946 -3.27062,6.54124 -7.35889,6.54124 h -30.66209 l 0.81765,11.44719 z"
       id="path2-9-5"
       style="fill:#27be64;fill-opacity:1;stroke-width:4.08829"
       sodipodi:nodetypes="cssssssssccc" />
    <g
       inkscape:export-ydpi="53.799995"
       inkscape:export-xdpi="53.799995"
       style="fill:#ffffff;fill-opacity:1;stroke:#000000;stroke-width:3.50768"
       id="g14-39-6-0-3"
       transform="matrix(0.03810379,0.0147361,-0.01468542,0.03855406,-118.09339,102.03078)">
      <g
         style="fill:#ffffff;fill-opacity:1;stroke:#000000;stroke-width:3.50768"
         id="g12-2-9-0-5"
         transform="matrix(0.0997661,-0.00658435,-0.00663306,-0.09979668,1.9631403,544.88388)">
        <path
           style="fill:#ffffff;fill-opacity:1;stroke:#000000;stroke-width:3.50768"
           id="path4-6-5-4"
           d="m 7412.9,5004.9 c -120.7,-7.7 -291.2,-19.2 -377.5,-26.8 l -157.1,-15.3 306.6,-183.9 c 1086.4,-659.1 1904.5,-1454.2 2513.8,-2452.4 130.3,-212.7 143.7,-229.9 153.3,-182 5.7,30.6 23,264.4 34.5,523.1 32.6,620.8 3.8,1444.6 -55.6,1609.4 -65.1,187.8 -120.7,274 -260.6,413.8 -233.7,233.7 -387,291.2 -854.5,314.2 -377.5,21 -971.5,19.1 -1302.9,-0.1 z"
           inkscape:connector-curvature="0" />
        <path
           style="fill:#ffffff;fill-opacity:1;stroke:#000000;stroke-width:3.50768"
           id="path6-4-6-6"
           d="M 5592.7,4707.9 C 4397.1,4357.3 3387.4,3736.5 2383.4,2732.5 1385.2,1732.4 751,703.5 406.1,-484.4 c -36.4,-126.4 -67.1,-256.7 -69,-289.3 -1.9,-74.7 333.4,-756.8 513.5,-1042.3 145.6,-229.9 335.3,-498.2 352.5,-498.2 5.8,1.9 67.1,101.5 136,224.2 124.5,222.2 538.4,864.1 689.8,1069.1 l 80.5,109.2 -212.6,214.7 c -182,183.9 -212.7,226.1 -212.7,277.8 0,82.4 72.8,155.2 155.2,155.2 51.7,0 92,-30.7 258.7,-195.4 l 199.2,-193.6 42.2,55.6 c 24.9,30.6 105.4,132.2 182,228 l 136,172.4 -222.2,224.2 c -203.1,205 -222.3,231.8 -222.3,295.1 0,53.6 13.4,80.5 55.6,116.9 90.1,78.5 143.7,53.6 383.2,-185.9 l 210.8,-208.8 176.3,205 176.3,205 -220.3,222.3 c -193.5,197.3 -218.4,229.9 -218.4,289.3 0,86.2 65.1,149.4 153.3,149.4 55.6,0 90.1,-26.8 277.8,-210.8 116.9,-115 218.4,-210.8 224.2,-210.8 5.7,0 93.9,90.1 197.3,201.2 l 187.8,203.1 -214.8,216.5 c -187.8,191.6 -212.7,224.2 -212.7,283.6 0,86.2 65.1,149.4 153.3,149.4 55.6,0 92,-26.8 279.7,-212.7 l 216.5,-214.6 149.4,136 c 82.4,72.8 174.4,160.9 205,193.5 l 57.5,59.4 -205,208.8 c -185.9,185.9 -205,214.6 -205,277.8 0,92 53.6,145.6 147.5,145.6 63.2,0 90,-19.2 285.5,-212.7 l 214.6,-212.7 193.5,168.6 193.5,168.6 -201.2,205 c -189.7,191.6 -201.2,206.9 -201.2,281.6 0,61.3 11.5,86.2 49.8,116.9 95.8,74.7 130.3,57.5 371.7,-182 l 226.1,-222.3 197.3,159 c 109.2,86.2 206.9,164.8 218.4,174.4 11.5,9.6 -55.6,90 -168.6,203.1 -220.3,222.3 -243.3,275.9 -151.4,367.9 99.6,99.6 136,84.3 377.5,-155.2 l 214.6,-210.8 293.1,201.2 c 306.6,212.7 745.3,492.4 963.7,613.1 70.9,40.2 128.4,80.5 128.4,90.1 0,24.9 -454.1,320 -737.6,479 -281.7,157.1 -779.8,400.4 -818.1,400.4 -13.3,-1.6 -124.4,-30.4 -245.1,-66.8 z"
           inkscape:connector-curvature="0" />
        <path
           style="fill:#ffffff;fill-opacity:1;stroke:#000000;stroke-width:3.50768"
           id="path8-6-2-4"
           d="M 7401.4,3527.7 C 7000.9,3292 6361,2876.3 6255.6,2780.5 c -11.5,-9.6 51.7,-90 157.1,-197.3 147.5,-149.5 176.3,-187.8 176.3,-239.5 0,-82.4 -72.8,-155.2 -155.2,-155.2 -51.7,0 -92,30.7 -258.7,193.5 l -197.4,193.5 -201.2,-155.2 c -111.1,-86.2 -206.9,-166.7 -214.6,-176.3 -7.7,-11.5 61.3,-95.8 153.3,-187.8 147.5,-147.5 164.8,-172.4 164.8,-235.7 0,-53.6 -11.5,-80.5 -49.8,-109.2 -97.7,-76.6 -145.6,-57.5 -348.7,139.9 l -187.8,182 -185.8,-162.9 c -101.5,-90 -185.8,-168.6 -185.8,-176.3 0,-5.8 72.8,-86.2 162.9,-178.2 143.7,-145.6 162.9,-174.4 162.9,-235.7 0,-74.7 -51.7,-143.7 -109.2,-147.5 -88.1,-5.7 -122.6,15.3 -287.4,178.2 L 4677,1485.1 4473.9,1297.3 c -111.1,-105.4 -203.1,-193.5 -203.1,-199.3 0,-3.8 72.8,-84.3 162.9,-176.3 143.7,-145.6 162.9,-174.4 162.9,-235.7 0,-74.7 -51.7,-143.7 -111.1,-147.5 -84.3,-5.7 -120.7,15.3 -275.9,170.5 l -166.7,164.8 -42.2,-38.3 c -23,-19.2 -109.2,-113 -195.4,-205 L 3652,461.9 3818.7,293.3 c 134.1,-138 164.8,-180.1 164.8,-228 0,-88.1 -19.2,-120.7 -84.3,-147.5 -84.3,-36.4 -132.2,-9.6 -308.5,164.8 L 3435.5,233.9 3259,31.1 l -178.2,-205 172.4,-176.3 c 195.4,-199.2 216.5,-256.7 126.5,-344.9 -88.1,-90.1 -147.5,-69 -335.3,115 l -166.7,162.9 -160.9,-205 c -90,-115 -170.5,-218.4 -178.2,-233.7 -11.5,-17.2 38.3,-80.5 168.6,-210.8 220.3,-220.3 241.4,-274 147.5,-367.9 -92,-92 -147.5,-70.9 -348.7,128.4 -92,92 -174.4,160.9 -185.8,153.3 -49.8,-30.7 -544.1,-793.2 -768.3,-1186 l -139.9,-243.4 95.8,-111.1 c 51.7,-59.4 197.4,-208.8 321.9,-329.6 548,-530.7 1207.1,-982.9 1994.5,-1366.1 l 314.2,-151.4 128.4,32.6 c 208.8,51.7 580.5,176.3 825.8,277.8 992.5,408.1 1860.4,1032.7 2764.8,1992.6 867.9,917.8 1440.8,1912.1 1749.3,3023.4 l 65.1,235.7 -72.8,168.6 c -394.7,892.8 -986.7,1701.4 -1688,2304.9 -120.7,103.5 -224.2,187.8 -229.9,187.8 -7.7,0 -132.2,-70.9 -279.7,-155.2 z"
           inkscape:connector-curvature="0" />
        <path
           style="fill:#ffffff;fill-opacity:1;stroke:#000000;stroke-width:3.50768"
           id="path10-9-8-4"
           d="m 143.7,-1898.3 c -34.5,-130.3 -55.6,-1013.6 -36.4,-1509.8 19.2,-482.8 24.9,-534.6 67.1,-653.3 130.3,-350.6 417.7,-601.6 770.2,-674.4 285.5,-61.3 1645.8,-57.5 2075,3.8 l 92,13.4 -162.9,93.9 c -249.1,141.8 -731.9,469.4 -965.6,651.4 -689.9,540.3 -1257,1176.4 -1703.4,1912.1 -103.5,170.5 -126.5,197.3 -136,162.9 z"
           inkscape:connector-curvature="0" />
      </g>
    </g>
    <g
       id="g889"
       transform="translate(1.4462712,-4.3237434)">
      <path
         fill="#616e7d"
         d="m -344.76832,216.32406 h -29.99412 c -3.44763,0 -6.20569,-2.5376 -6.20569,-5.80027 v -31.90137 c 0,-3.26267 2.75806,-5.80027 6.20569,-5.80027 h 64.47014 c 3.44759,0 6.20567,2.5376 6.20567,5.80027 v 31.90138 c 0,3.26266 -2.75808,5.80026 -6.20567,5.80026 h -25.85701 l 0.6895,10.15044 z"
         id="path2-9-5-8-9-9-7"
         style="fill:#e5e5e5;fill-opacity:1;stroke:#9827be;stroke-width:4.69161;stroke-miterlimit:4;stroke-dasharray:none;stroke-opacity:1"
         sodipodi:nodetypes="cssssssssccc" />
      <path
         fill="#616e7d"
         d="m -385.75842,196.11245 h 30.27677 c 3.4801,0 6.26418,-2.87573 6.26418,-6.57315 v -36.15232 c 0,-3.69739 -2.78408,-6.57314 -6.26418,-6.57314 h -65.0777 c -3.48008,0 -6.26414,2.87575 -6.26414,6.57314 v 36.15232 c 0,3.69742 2.78406,6.57315 6.26414,6.57315 h 26.1007 l -0.69603,11.50303 z"
         id="path2-9-5-8-91-0-2"
         style="fill:#e5e5e5;fill-opacity:1;stroke:#27be64;stroke-width:4.69161;stroke-miterlimit:4;stroke-dasharray:none;stroke-opacity:1"
         sodipodi:nodetypes="cssssssssccc" />
      <path
         fill="#616e7d"
         d="m -302.24855,177.30452 -60.47657,-0.32196 c -4.2144,-0.0224 -7.58601,-3.35069 -7.58601,-7.65872 v -42.12301 c 0,-4.30803 3.37156,-7.6587 7.58601,-7.6587 h 78.81011 c 4.21443,0 7.58598,3.35067 7.58598,7.6587 v 42.12301 c 0,4.30803 -3.37155,7.65872 -7.58598,7.65872 l -7.79745,0.32196 0.84288,13.40275 z"
         id="path2-9-2-7-0"
         style="fill:#e4e4e4;fill-opacity:1;stroke:#d31027;stroke-width:4.69161;stroke-miterlimit:4;stroke-dasharray:none;stroke-opacity:1"
         sodipodi:nodetypes="cssssssssccc" />
    </g>
    <path
       transform="matrix(-0.95583528,0,0,0.95788252,-414.76194,-221.3073)"
       inkscape:export-ydpi="53.799995"
       inkscape:export-xdpi="53.799995"
       inkscape:randomized="0"
       inkscape:rounded="0"
       inkscape:flatsided="true"
       sodipodi:arg2="3.1415491"
       sodipodi:arg1="2.6179504"
       sodipodi:r2="85.672287"
       sodipodi:r1="120.00529"
       sodipodi:cy="409.28586"
       sodipodi:cx="170.52629"
       sodipodi:sides="6"
       id="path821-9-6-2-2"
       style="fill:#333333;fill-opacity:1;stroke:#d31027;stroke-width:8.98185;stroke-linecap:round;stroke-linejoin:miter;stroke-miterlimit:4;stroke-dasharray:none;stroke-opacity:1;paint-order:normal"
       sodipodi:type="star"
       d="m 66.601273,469.29302 -0.0052,-120.00529 103.925015,-60.00716 103.93024,59.99813 0.005,120.00528 -103.92502,60.00717 z" />
    <path
       fill="#616e7d"
       d="m -570.09371,211.4525 h -34.06688 c -3.91577,0 -7.04834,-2.5376 -7.04834,-5.80026 v -31.90138 c 0,-3.26266 3.13257,-5.80027 7.04834,-5.80027 h 73.22424 c 3.91573,0 7.04831,2.53761 7.04831,5.80027 v 31.90139 c 0,3.26265 -3.13258,5.80025 -7.04831,5.80025 h -29.36801 l 0.78312,10.15045 z"
       id="path2-9-5-8-9-9"
       style="fill:#e5e5e5;fill-opacity:1;stroke:#d31027;stroke-width:2.64583333;stroke-miterlimit:4;stroke-dasharray:none;stroke-opacity:1"
       sodipodi:nodetypes="cssssssssccc" />
    <path
       fill="#616e7d"
       d="m -616.64967,191.24089 h 34.38792 c 3.95265,0 7.11476,-2.87573 7.11476,-6.57314 v -36.15233 c 0,-3.69739 -3.16211,-6.57314 -7.11476,-6.57314 h -73.91431 c -3.95262,0 -7.11472,2.87575 -7.11472,6.57314 v 36.15233 c 0,3.69741 3.1621,6.57314 7.11472,6.57314 h 29.6448 l -0.79054,11.50303 z"
       id="path2-9-5-8-91-0"
       style="fill:#e5e5e5;fill-opacity:1;stroke:#d31027;stroke-width:2.64583333;stroke-miterlimit:4;stroke-dasharray:none;stroke-opacity:1"
       sodipodi:nodetypes="cssssssssccc" />
    <path
       fill="#616e7d"
       d="m -521.80037,172.43296 -68.68841,-0.32195 c -4.78665,-0.0224 -8.61608,-3.35069 -8.61608,-7.65873 v -42.12301 c 0,-4.30803 3.82937,-7.6587 8.61608,-7.6587 h 89.51137 c 4.78669,0 8.61605,3.35067 8.61605,7.6587 v 42.12301 c 0,4.30804 -3.82936,7.65873 -8.61605,7.65873 l -8.85622,0.32195 0.95733,13.40276 z"
       id="path2-9-2-7"
       style="fill:#e4e4e4;fill-opacity:1;stroke:#d31027;stroke-width:2.64583333;stroke-miterlimit:4;stroke-dasharray:none;stroke-opacity:1"
       sodipodi:nodetypes="cssssssssccc" />
    <g
       inkscape:export-ydpi="53.799995"
       inkscape:export-xdpi="53.799995"
       style="fill:#d31027;fill-opacity:1;stroke:#000000;stroke-width:3.50768"
       id="g14-39-6-0-0-9"
       transform="matrix(0.04198623,0.01623758,-0.01618173,0.04248237,-558.06161,113.57711)">
      <g
         style="fill:#d31027;fill-opacity:1;stroke:#000000;stroke-width:3.50768"
         id="g12-2-9-0-8-1"
         transform="matrix(0.0997661,-0.00658435,-0.00663306,-0.09979668,1.9631403,544.88388)">
        <path
           style="fill:#d31027;fill-opacity:1;stroke:#000000;stroke-width:3.50768"
           id="path4-6-5-2-3"
           d="m 7412.9,5004.9 c -120.7,-7.7 -291.2,-19.2 -377.5,-26.8 l -157.1,-15.3 306.6,-183.9 c 1086.4,-659.1 1904.5,-1454.2 2513.8,-2452.4 130.3,-212.7 143.7,-229.9 153.3,-182 5.7,30.6 23,264.4 34.5,523.1 32.6,620.8 3.8,1444.6 -55.6,1609.4 -65.1,187.8 -120.7,274 -260.6,413.8 -233.7,233.7 -387,291.2 -854.5,314.2 -377.5,21 -971.5,19.1 -1302.9,-0.1 z"
           inkscape:connector-curvature="0" />
        <path
           style="fill:#d31027;fill-opacity:1;stroke:#000000;stroke-width:3.50768"
           id="path6-4-6-9-6"
           d="M 5592.7,4707.9 C 4397.1,4357.3 3387.4,3736.5 2383.4,2732.5 1385.2,1732.4 751,703.5 406.1,-484.4 c -36.4,-126.4 -67.1,-256.7 -69,-289.3 -1.9,-74.7 333.4,-756.8 513.5,-1042.3 145.6,-229.9 335.3,-498.2 352.5,-498.2 5.8,1.9 67.1,101.5 136,224.2 124.5,222.2 538.4,864.1 689.8,1069.1 l 80.5,109.2 -212.6,214.7 c -182,183.9 -212.7,226.1 -212.7,277.8 0,82.4 72.8,155.2 155.2,155.2 51.7,0 92,-30.7 258.7,-195.4 l 199.2,-193.6 42.2,55.6 c 24.9,30.6 105.4,132.2 182,228 l 136,172.4 -222.2,224.2 c -203.1,205 -222.3,231.8 -222.3,295.1 0,53.6 13.4,80.5 55.6,116.9 90.1,78.5 143.7,53.6 383.2,-185.9 l 210.8,-208.8 176.3,205 176.3,205 -220.3,222.3 c -193.5,197.3 -218.4,229.9 -218.4,289.3 0,86.2 65.1,149.4 153.3,149.4 55.6,0 90.1,-26.8 277.8,-210.8 116.9,-115 218.4,-210.8 224.2,-210.8 5.7,0 93.9,90.1 197.3,201.2 l 187.8,203.1 -214.8,216.5 c -187.8,191.6 -212.7,224.2 -212.7,283.6 0,86.2 65.1,149.4 153.3,149.4 55.6,0 92,-26.8 279.7,-212.7 l 216.5,-214.6 149.4,136 c 82.4,72.8 174.4,160.9 205,193.5 l 57.5,59.4 -205,208.8 c -185.9,185.9 -205,214.6 -205,277.8 0,92 53.6,145.6 147.5,145.6 63.2,0 90,-19.2 285.5,-212.7 l 214.6,-212.7 193.5,168.6 193.5,168.6 -201.2,205 c -189.7,191.6 -201.2,206.9 -201.2,281.6 0,61.3 11.5,86.2 49.8,116.9 95.8,74.7 130.3,57.5 371.7,-182 l 226.1,-222.3 197.3,159 c 109.2,86.2 206.9,164.8 218.4,174.4 11.5,9.6 -55.6,90 -168.6,203.1 -220.3,222.3 -243.3,275.9 -151.4,367.9 99.6,99.6 136,84.3 377.5,-155.2 l 214.6,-210.8 293.1,201.2 c 306.6,212.7 745.3,492.4 963.7,613.1 70.9,40.2 128.4,80.5 128.4,90.1 0,24.9 -454.1,320 -737.6,479 -281.7,157.1 -779.8,400.4 -818.1,400.4 -13.3,-1.6 -124.4,-30.4 -245.1,-66.8 z"
           inkscape:connector-curvature="0" />
        <path
           style="fill:#d31027;fill-opacity:1;stroke:#000000;stroke-width:3.50768"
           id="path8-6-2-2-7"
           d="M 7401.4,3527.7 C 7000.9,3292 6361,2876.3 6255.6,2780.5 c -11.5,-9.6 51.7,-90 157.1,-197.3 147.5,-149.5 176.3,-187.8 176.3,-239.5 0,-82.4 -72.8,-155.2 -155.2,-155.2 -51.7,0 -92,30.7 -258.7,193.5 l -197.4,193.5 -201.2,-155.2 c -111.1,-86.2 -206.9,-166.7 -214.6,-176.3 -7.7,-11.5 61.3,-95.8 153.3,-187.8 147.5,-147.5 164.8,-172.4 164.8,-235.7 0,-53.6 -11.5,-80.5 -49.8,-109.2 -97.7,-76.6 -145.6,-57.5 -348.7,139.9 l -187.8,182 -185.8,-162.9 c -101.5,-90 -185.8,-168.6 -185.8,-176.3 0,-5.8 72.8,-86.2 162.9,-178.2 143.7,-145.6 162.9,-174.4 162.9,-235.7 0,-74.7 -51.7,-143.7 -109.2,-147.5 -88.1,-5.7 -122.6,15.3 -287.4,178.2 L 4677,1485.1 4473.9,1297.3 c -111.1,-105.4 -203.1,-193.5 -203.1,-199.3 0,-3.8 72.8,-84.3 162.9,-176.3 143.7,-145.6 162.9,-174.4 162.9,-235.7 0,-74.7 -51.7,-143.7 -111.1,-147.5 -84.3,-5.7 -120.7,15.3 -275.9,170.5 l -166.7,164.8 -42.2,-38.3 c -23,-19.2 -109.2,-113 -195.4,-205 L 3652,461.9 3818.7,293.3 c 134.1,-138 164.8,-180.1 164.8,-228 0,-88.1 -19.2,-120.7 -84.3,-147.5 -84.3,-36.4 -132.2,-9.6 -308.5,164.8 L 3435.5,233.9 3259,31.1 l -178.2,-205 172.4,-176.3 c 195.4,-199.2 216.5,-256.7 126.5,-344.9 -88.1,-90.1 -147.5,-69 -335.3,115 l -166.7,162.9 -160.9,-205 c -90,-115 -170.5,-218.4 -178.2,-233.7 -11.5,-17.2 38.3,-80.5 168.6,-210.8 220.3,-220.3 241.4,-274 147.5,-367.9 -92,-92 -147.5,-70.9 -348.7,128.4 -92,92 -174.4,160.9 -185.8,153.3 -49.8,-30.7 -544.1,-793.2 -768.3,-1186 l -139.9,-243.4 95.8,-111.1 c 51.7,-59.4 197.4,-208.8 321.9,-329.6 548,-530.7 1207.1,-982.9 1994.5,-1366.1 l 314.2,-151.4 128.4,32.6 c 208.8,51.7 580.5,176.3 825.8,277.8 992.5,408.1 1860.4,1032.7 2764.8,1992.6 867.9,917.8 1440.8,1912.1 1749.3,3023.4 l 65.1,235.7 -72.8,168.6 c -394.7,892.8 -986.7,1701.4 -1688,2304.9 -120.7,103.5 -224.2,187.8 -229.9,187.8 -7.7,0 -132.2,-70.9 -279.7,-155.2 z"
           inkscape:connector-curvature="0" />
        <path
           style="fill:#d31027;fill-opacity:1;stroke:#000000;stroke-width:3.50768"
           id="path10-9-8-47-6"
           d="m 143.7,-1898.3 c -34.5,-130.3 -55.6,-1013.6 -36.4,-1509.8 19.2,-482.8 24.9,-534.6 67.1,-653.3 130.3,-350.6 417.7,-601.6 770.2,-674.4 285.5,-61.3 1645.8,-57.5 2075,3.8 l 92,13.4 -162.9,93.9 c -249.1,141.8 -731.9,469.4 -965.6,651.4 -689.9,540.3 -1257,1176.4 -1703.4,1912.1 -103.5,170.5 -126.5,197.3 -136,162.9 z"
           inkscape:connector-curvature="0" />
      </g>
    </g>
    <g
       inkscape:export-ydpi="53.799995"
       inkscape:export-xdpi="53.799995"
       style="fill:#d31027;fill-opacity:1;stroke:#000000;stroke-width:3.50768"
       id="g14-39-6-0-0"
       transform="matrix(0.04198623,0.01623758,-0.01618173,0.04248237,-332.07692,115.24931)">
      <g
         style="fill:#d31027;fill-opacity:1;stroke:#000000;stroke-width:3.50768"
         id="g12-2-9-0-8"
         transform="matrix(0.0997661,-0.00658435,-0.00663306,-0.09979668,1.9631403,544.88388)">
        <path
           style="fill:#d31027;fill-opacity:1;stroke:#000000;stroke-width:3.50768"
           id="path4-6-5-2"
           d="m 7412.9,5004.9 c -120.7,-7.7 -291.2,-19.2 -377.5,-26.8 l -157.1,-15.3 306.6,-183.9 c 1086.4,-659.1 1904.5,-1454.2 2513.8,-2452.4 130.3,-212.7 143.7,-229.9 153.3,-182 5.7,30.6 23,264.4 34.5,523.1 32.6,620.8 3.8,1444.6 -55.6,1609.4 -65.1,187.8 -120.7,274 -260.6,413.8 -233.7,233.7 -387,291.2 -854.5,314.2 -377.5,21 -971.5,19.1 -1302.9,-0.1 z"
           inkscape:connector-curvature="0" />
        <path
           style="fill:#d31027;fill-opacity:1;stroke:#000000;stroke-width:3.50768"
           id="path6-4-6-9"
           d="M 5592.7,4707.9 C 4397.1,4357.3 3387.4,3736.5 2383.4,2732.5 1385.2,1732.4 751,703.5 406.1,-484.4 c -36.4,-126.4 -67.1,-256.7 -69,-289.3 -1.9,-74.7 333.4,-756.8 513.5,-1042.3 145.6,-229.9 335.3,-498.2 352.5,-498.2 5.8,1.9 67.1,101.5 136,224.2 124.5,222.2 538.4,864.1 689.8,1069.1 l 80.5,109.2 -212.6,214.7 c -182,183.9 -212.7,226.1 -212.7,277.8 0,82.4 72.8,155.2 155.2,155.2 51.7,0 92,-30.7 258.7,-195.4 l 199.2,-193.6 42.2,55.6 c 24.9,30.6 105.4,132.2 182,228 l 136,172.4 -222.2,224.2 c -203.1,205 -222.3,231.8 -222.3,295.1 0,53.6 13.4,80.5 55.6,116.9 90.1,78.5 143.7,53.6 383.2,-185.9 l 210.8,-208.8 176.3,205 176.3,205 -220.3,222.3 c -193.5,197.3 -218.4,229.9 -218.4,289.3 0,86.2 65.1,149.4 153.3,149.4 55.6,0 90.1,-26.8 277.8,-210.8 116.9,-115 218.4,-210.8 224.2,-210.8 5.7,0 93.9,90.1 197.3,201.2 l 187.8,203.1 -214.8,216.5 c -187.8,191.6 -212.7,224.2 -212.7,283.6 0,86.2 65.1,149.4 153.3,149.4 55.6,0 92,-26.8 279.7,-212.7 l 216.5,-214.6 149.4,136 c 82.4,72.8 174.4,160.9 205,193.5 l 57.5,59.4 -205,208.8 c -185.9,185.9 -205,214.6 -205,277.8 0,92 53.6,145.6 147.5,145.6 63.2,0 90,-19.2 285.5,-212.7 l 214.6,-212.7 193.5,168.6 193.5,168.6 -201.2,205 c -189.7,191.6 -201.2,206.9 -201.2,281.6 0,61.3 11.5,86.2 49.8,116.9 95.8,74.7 130.3,57.5 371.7,-182 l 226.1,-222.3 197.3,159 c 109.2,86.2 206.9,164.8 218.4,174.4 11.5,9.6 -55.6,90 -168.6,203.1 -220.3,222.3 -243.3,275.9 -151.4,367.9 99.6,99.6 136,84.3 377.5,-155.2 l 214.6,-210.8 293.1,201.2 c 306.6,212.7 745.3,492.4 963.7,613.1 70.9,40.2 128.4,80.5 128.4,90.1 0,24.9 -454.1,320 -737.6,479 -281.7,157.1 -779.8,400.4 -818.1,400.4 -13.3,-1.6 -124.4,-30.4 -245.1,-66.8 z"
           inkscape:connector-curvature="0" />
        <path
           style="fill:#d31027;fill-opacity:1;stroke:#000000;stroke-width:3.50768"
           id="path8-6-2-2"
           d="M 7401.4,3527.7 C 7000.9,3292 6361,2876.3 6255.6,2780.5 c -11.5,-9.6 51.7,-90 157.1,-197.3 147.5,-149.5 176.3,-187.8 176.3,-239.5 0,-82.4 -72.8,-155.2 -155.2,-155.2 -51.7,0 -92,30.7 -258.7,193.5 l -197.4,193.5 -201.2,-155.2 c -111.1,-86.2 -206.9,-166.7 -214.6,-176.3 -7.7,-11.5 61.3,-95.8 153.3,-187.8 147.5,-147.5 164.8,-172.4 164.8,-235.7 0,-53.6 -11.5,-80.5 -49.8,-109.2 -97.7,-76.6 -145.6,-57.5 -348.7,139.9 l -187.8,182 -185.8,-162.9 c -101.5,-90 -185.8,-168.6 -185.8,-176.3 0,-5.8 72.8,-86.2 162.9,-178.2 143.7,-145.6 162.9,-174.4 162.9,-235.7 0,-74.7 -51.7,-143.7 -109.2,-147.5 -88.1,-5.7 -122.6,15.3 -287.4,178.2 L 4677,1485.1 4473.9,1297.3 c -111.1,-105.4 -203.1,-193.5 -203.1,-199.3 0,-3.8 72.8,-84.3 162.9,-176.3 143.7,-145.6 162.9,-174.4 162.9,-235.7 0,-74.7 -51.7,-143.7 -111.1,-147.5 -84.3,-5.7 -120.7,15.3 -275.9,170.5 l -166.7,164.8 -42.2,-38.3 c -23,-19.2 -109.2,-113 -195.4,-205 L 3652,461.9 3818.7,293.3 c 134.1,-138 164.8,-180.1 164.8,-228 0,-88.1 -19.2,-120.7 -84.3,-147.5 -84.3,-36.4 -132.2,-9.6 -308.5,164.8 L 3435.5,233.9 3259,31.1 l -178.2,-205 172.4,-176.3 c 195.4,-199.2 216.5,-256.7 126.5,-344.9 -88.1,-90.1 -147.5,-69 -335.3,115 l -166.7,162.9 -160.9,-205 c -90,-115 -170.5,-218.4 -178.2,-233.7 -11.5,-17.2 38.3,-80.5 168.6,-210.8 220.3,-220.3 241.4,-274 147.5,-367.9 -92,-92 -147.5,-70.9 -348.7,128.4 -92,92 -174.4,160.9 -185.8,153.3 -49.8,-30.7 -544.1,-793.2 -768.3,-1186 l -139.9,-243.4 95.8,-111.1 c 51.7,-59.4 197.4,-208.8 321.9,-329.6 548,-530.7 1207.1,-982.9 1994.5,-1366.1 l 314.2,-151.4 128.4,32.6 c 208.8,51.7 580.5,176.3 825.8,277.8 992.5,408.1 1860.4,1032.7 2764.8,1992.6 867.9,917.8 1440.8,1912.1 1749.3,3023.4 l 65.1,235.7 -72.8,168.6 c -394.7,892.8 -986.7,1701.4 -1688,2304.9 -120.7,103.5 -224.2,187.8 -229.9,187.8 -7.7,0 -132.2,-70.9 -279.7,-155.2 z"
           inkscape:connector-curvature="0" />
        <path
           style="fill:#d31027;fill-opacity:1;stroke:#000000;stroke-width:3.50768"
           id="path10-9-8-47"
           d="m 143.7,-1898.3 c -34.5,-130.3 -55.6,-1013.6 -36.4,-1509.8 19.2,-482.8 24.9,-534.6 67.1,-653.3 130.3,-350.6 417.7,-601.6 770.2,-674.4 285.5,-61.3 1645.8,-57.5 2075,3.8 l 92,13.4 -162.9,93.9 c -249.1,141.8 -731.9,469.4 -965.6,651.4 -689.9,540.3 -1257,1176.4 -1703.4,1912.1 -103.5,170.5 -126.5,197.3 -136,162.9 z"
           inkscape:connector-curvature="0" />
      </g>
    </g>
  </g>
</svg>
